<mxfile host="Electron" modified="2023-11-10T08:26:35.056Z" agent="Mozilla/5.0 (Macintosh; Intel Mac OS X 10_15_7) AppleWebKit/537.36 (KHTML, like Gecko) draw.io/22.0.3 Chrome/114.0.5735.289 Electron/25.8.4 Safari/537.36" etag="EmPmSb-L1CjiCTd7BAGv" version="22.0.3" type="device">
  <diagram name="Page-1" id="e3U0GTRKchKZnUab7jFw">
    <mxGraphModel dx="954" dy="727" grid="1" gridSize="10" guides="1" tooltips="1" connect="1" arrows="1" fold="1" page="1" pageScale="1" pageWidth="827" pageHeight="1169" math="0" shadow="0">
      <root>
        <mxCell id="0" />
        <mxCell id="1" parent="0" />
        <mxCell id="Bjp5nVyqqUVbzpo7jV4G-25" value="" style="edgeStyle=orthogonalEdgeStyle;rounded=0;orthogonalLoop=1;jettySize=auto;html=1;" edge="1" parent="1" source="Bjp5nVyqqUVbzpo7jV4G-2" target="Bjp5nVyqqUVbzpo7jV4G-6">
          <mxGeometry relative="1" as="geometry" />
        </mxCell>
        <mxCell id="Bjp5nVyqqUVbzpo7jV4G-2" value="" style="rounded=1;whiteSpace=wrap;html=1;dashed=1;" vertex="1" parent="1">
          <mxGeometry x="100" y="190" width="180" height="240" as="geometry" />
        </mxCell>
        <mxCell id="Bjp5nVyqqUVbzpo7jV4G-29" value="" style="edgeStyle=orthogonalEdgeStyle;rounded=0;orthogonalLoop=1;jettySize=auto;html=1;" edge="1" parent="1" source="Bjp5nVyqqUVbzpo7jV4G-3" target="Bjp5nVyqqUVbzpo7jV4G-6">
          <mxGeometry relative="1" as="geometry" />
        </mxCell>
        <mxCell id="Bjp5nVyqqUVbzpo7jV4G-3" value="LSTM" style="rounded=0;whiteSpace=wrap;html=1;fontFamily=Times New Roman;fontSize=18;fontStyle=1" vertex="1" parent="1">
          <mxGeometry x="130" y="229" width="120" height="60" as="geometry" />
        </mxCell>
        <mxCell id="Bjp5nVyqqUVbzpo7jV4G-4" value="LSTM" style="rounded=0;whiteSpace=wrap;html=1;fontFamily=Times New Roman;fontSize=18;fontStyle=1" vertex="1" parent="1">
          <mxGeometry x="130" y="330" width="120" height="60" as="geometry" />
        </mxCell>
        <mxCell id="Bjp5nVyqqUVbzpo7jV4G-5" value="x&lt;sub&gt;t-1&lt;/sub&gt;" style="ellipse;whiteSpace=wrap;html=1;aspect=fixed;fontFamily=Times New Roman;fontSize=18;fontStyle=1" vertex="1" parent="1">
          <mxGeometry x="160" y="450" width="60" height="60" as="geometry" />
        </mxCell>
        <mxCell id="Bjp5nVyqqUVbzpo7jV4G-6" value="y&lt;sub&gt;t-1&lt;/sub&gt;" style="ellipse;whiteSpace=wrap;html=1;aspect=fixed;fontFamily=Times New Roman;fontSize=18;fontStyle=1" vertex="1" parent="1">
          <mxGeometry x="160" y="110" width="60" height="60" as="geometry" />
        </mxCell>
        <mxCell id="Bjp5nVyqqUVbzpo7jV4G-21" value="" style="endArrow=classic;html=1;rounded=0;strokeWidth=4;" edge="1" parent="1">
          <mxGeometry width="50" height="50" relative="1" as="geometry">
            <mxPoint x="190" y="450" as="sourcePoint" />
            <mxPoint x="189.5" y="390" as="targetPoint" />
            <Array as="points">
              <mxPoint x="189.5" y="410" />
            </Array>
          </mxGeometry>
        </mxCell>
        <mxCell id="Bjp5nVyqqUVbzpo7jV4G-23" value="" style="endArrow=classic;html=1;rounded=0;strokeWidth=4;" edge="1" parent="1">
          <mxGeometry width="50" height="50" relative="1" as="geometry">
            <mxPoint x="190" y="230" as="sourcePoint" />
            <mxPoint x="189.5" y="170" as="targetPoint" />
            <Array as="points">
              <mxPoint x="190" y="213" />
              <mxPoint x="189.5" y="190" />
            </Array>
          </mxGeometry>
        </mxCell>
        <mxCell id="Bjp5nVyqqUVbzpo7jV4G-26" value="" style="endArrow=classic;html=1;strokeWidth=4;exitX=0.5;exitY=0;exitDx=0;exitDy=0;curved=1;" edge="1" parent="1" source="Bjp5nVyqqUVbzpo7jV4G-5">
          <mxGeometry width="50" height="50" relative="1" as="geometry">
            <mxPoint x="220" y="450" as="sourcePoint" />
            <mxPoint x="230" y="290" as="targetPoint" />
            <Array as="points">
              <mxPoint x="239.5" y="430" />
            </Array>
          </mxGeometry>
        </mxCell>
        <mxCell id="Bjp5nVyqqUVbzpo7jV4G-30" value="" style="endArrow=classic;html=1;strokeWidth=4;entryX=0.5;entryY=1;entryDx=0;entryDy=0;curved=1;" edge="1" parent="1" target="Bjp5nVyqqUVbzpo7jV4G-6">
          <mxGeometry width="50" height="50" relative="1" as="geometry">
            <mxPoint x="150.5" y="330" as="sourcePoint" />
            <mxPoint x="150" y="270" as="targetPoint" />
            <Array as="points">
              <mxPoint x="150" y="210" />
              <mxPoint x="190" y="200" />
            </Array>
          </mxGeometry>
        </mxCell>
        <mxCell id="Bjp5nVyqqUVbzpo7jV4G-31" value="" style="edgeStyle=orthogonalEdgeStyle;rounded=0;orthogonalLoop=1;jettySize=auto;html=1;" edge="1" parent="1" source="Bjp5nVyqqUVbzpo7jV4G-32" target="Bjp5nVyqqUVbzpo7jV4G-37">
          <mxGeometry relative="1" as="geometry" />
        </mxCell>
        <mxCell id="Bjp5nVyqqUVbzpo7jV4G-32" value="" style="rounded=1;whiteSpace=wrap;html=1;dashed=1;" vertex="1" parent="1">
          <mxGeometry x="324" y="190" width="180" height="240" as="geometry" />
        </mxCell>
        <mxCell id="Bjp5nVyqqUVbzpo7jV4G-33" value="" style="edgeStyle=orthogonalEdgeStyle;rounded=0;orthogonalLoop=1;jettySize=auto;html=1;" edge="1" parent="1" source="Bjp5nVyqqUVbzpo7jV4G-34" target="Bjp5nVyqqUVbzpo7jV4G-37">
          <mxGeometry relative="1" as="geometry" />
        </mxCell>
        <mxCell id="Bjp5nVyqqUVbzpo7jV4G-34" value="&lt;b&gt;LSTM&lt;/b&gt;" style="rounded=0;whiteSpace=wrap;html=1;fontFamily=Times New Roman;fontSize=18;" vertex="1" parent="1">
          <mxGeometry x="354" y="229" width="120" height="60" as="geometry" />
        </mxCell>
        <mxCell id="Bjp5nVyqqUVbzpo7jV4G-35" value="&lt;b&gt;LSTM&lt;/b&gt;" style="rounded=0;whiteSpace=wrap;html=1;fontSize=18;fontFamily=Times New Roman;" vertex="1" parent="1">
          <mxGeometry x="354" y="330" width="120" height="60" as="geometry" />
        </mxCell>
        <mxCell id="Bjp5nVyqqUVbzpo7jV4G-36" value="x&lt;sub style=&quot;font-size: 16px;&quot;&gt;t&lt;/sub&gt;" style="ellipse;whiteSpace=wrap;html=1;aspect=fixed;fontFamily=Times New Roman;fontSize=16;fontStyle=1" vertex="1" parent="1">
          <mxGeometry x="384" y="450" width="60" height="60" as="geometry" />
        </mxCell>
        <mxCell id="Bjp5nVyqqUVbzpo7jV4G-37" value="y&lt;sub&gt;t&lt;/sub&gt;" style="ellipse;whiteSpace=wrap;html=1;aspect=fixed;fontSize=18;fontFamily=Times New Roman;fontStyle=1" vertex="1" parent="1">
          <mxGeometry x="384" y="110" width="60" height="60" as="geometry" />
        </mxCell>
        <mxCell id="Bjp5nVyqqUVbzpo7jV4G-38" value="" style="endArrow=classic;html=1;rounded=0;strokeWidth=4;" edge="1" parent="1">
          <mxGeometry width="50" height="50" relative="1" as="geometry">
            <mxPoint x="414" y="450" as="sourcePoint" />
            <mxPoint x="413.5" y="390" as="targetPoint" />
            <Array as="points">
              <mxPoint x="413.5" y="410" />
            </Array>
          </mxGeometry>
        </mxCell>
        <mxCell id="Bjp5nVyqqUVbzpo7jV4G-39" value="" style="endArrow=classic;html=1;rounded=0;strokeWidth=4;" edge="1" parent="1">
          <mxGeometry width="50" height="50" relative="1" as="geometry">
            <mxPoint x="414" y="230" as="sourcePoint" />
            <mxPoint x="413.5" y="170" as="targetPoint" />
            <Array as="points">
              <mxPoint x="414" y="213" />
              <mxPoint x="413.5" y="190" />
            </Array>
          </mxGeometry>
        </mxCell>
        <mxCell id="Bjp5nVyqqUVbzpo7jV4G-40" value="" style="endArrow=classic;html=1;strokeWidth=4;exitX=0.5;exitY=0;exitDx=0;exitDy=0;curved=1;" edge="1" parent="1" source="Bjp5nVyqqUVbzpo7jV4G-36">
          <mxGeometry width="50" height="50" relative="1" as="geometry">
            <mxPoint x="444" y="450" as="sourcePoint" />
            <mxPoint x="454" y="290" as="targetPoint" />
            <Array as="points">
              <mxPoint x="463.5" y="430" />
            </Array>
          </mxGeometry>
        </mxCell>
        <mxCell id="Bjp5nVyqqUVbzpo7jV4G-41" value="" style="endArrow=classic;html=1;strokeWidth=4;entryX=0.5;entryY=1;entryDx=0;entryDy=0;curved=1;" edge="1" parent="1" target="Bjp5nVyqqUVbzpo7jV4G-37">
          <mxGeometry width="50" height="50" relative="1" as="geometry">
            <mxPoint x="374.5" y="330" as="sourcePoint" />
            <mxPoint x="374" y="270" as="targetPoint" />
            <Array as="points">
              <mxPoint x="374.5" y="313" />
              <mxPoint x="374" y="210" />
              <mxPoint x="414" y="200" />
            </Array>
          </mxGeometry>
        </mxCell>
        <mxCell id="Bjp5nVyqqUVbzpo7jV4G-42" value="" style="edgeStyle=orthogonalEdgeStyle;rounded=0;orthogonalLoop=1;jettySize=auto;html=1;" edge="1" parent="1" source="Bjp5nVyqqUVbzpo7jV4G-43" target="Bjp5nVyqqUVbzpo7jV4G-48">
          <mxGeometry relative="1" as="geometry" />
        </mxCell>
        <mxCell id="Bjp5nVyqqUVbzpo7jV4G-43" value="" style="rounded=1;whiteSpace=wrap;html=1;dashed=1;" vertex="1" parent="1">
          <mxGeometry x="550" y="190" width="180" height="240" as="geometry" />
        </mxCell>
        <mxCell id="Bjp5nVyqqUVbzpo7jV4G-44" value="" style="edgeStyle=orthogonalEdgeStyle;rounded=0;orthogonalLoop=1;jettySize=auto;html=1;" edge="1" parent="1" source="Bjp5nVyqqUVbzpo7jV4G-45" target="Bjp5nVyqqUVbzpo7jV4G-48">
          <mxGeometry relative="1" as="geometry" />
        </mxCell>
        <mxCell id="Bjp5nVyqqUVbzpo7jV4G-45" value="&lt;b&gt;LSTM&lt;/b&gt;" style="rounded=0;whiteSpace=wrap;html=1;fontFamily=Times New Roman;fontSize=18;" vertex="1" parent="1">
          <mxGeometry x="580" y="229" width="120" height="60" as="geometry" />
        </mxCell>
        <mxCell id="Bjp5nVyqqUVbzpo7jV4G-46" value="&lt;b&gt;&lt;font face=&quot;Times New Roman&quot; style=&quot;font-size: 18px;&quot;&gt;LSTM&lt;/font&gt;&lt;/b&gt;" style="rounded=0;whiteSpace=wrap;html=1;" vertex="1" parent="1">
          <mxGeometry x="580" y="330" width="120" height="60" as="geometry" />
        </mxCell>
        <mxCell id="Bjp5nVyqqUVbzpo7jV4G-47" value="x&lt;sub&gt;t+1&lt;/sub&gt;" style="ellipse;whiteSpace=wrap;html=1;aspect=fixed;fontFamily=Times New Roman;fontSize=18;fontStyle=1" vertex="1" parent="1">
          <mxGeometry x="610" y="450" width="60" height="60" as="geometry" />
        </mxCell>
        <mxCell id="Bjp5nVyqqUVbzpo7jV4G-48" value="y&lt;sub&gt;t+1&lt;/sub&gt;" style="ellipse;whiteSpace=wrap;html=1;aspect=fixed;fontFamily=Times New Roman;fontStyle=1;fontSize=18;" vertex="1" parent="1">
          <mxGeometry x="610" y="110" width="60" height="60" as="geometry" />
        </mxCell>
        <mxCell id="Bjp5nVyqqUVbzpo7jV4G-49" value="" style="endArrow=classic;html=1;rounded=0;strokeWidth=4;" edge="1" parent="1">
          <mxGeometry width="50" height="50" relative="1" as="geometry">
            <mxPoint x="640" y="450" as="sourcePoint" />
            <mxPoint x="639.5" y="390" as="targetPoint" />
            <Array as="points">
              <mxPoint x="639.5" y="410" />
            </Array>
          </mxGeometry>
        </mxCell>
        <mxCell id="Bjp5nVyqqUVbzpo7jV4G-50" value="" style="endArrow=classic;html=1;rounded=0;strokeWidth=4;" edge="1" parent="1">
          <mxGeometry width="50" height="50" relative="1" as="geometry">
            <mxPoint x="640" y="230" as="sourcePoint" />
            <mxPoint x="639.5" y="170" as="targetPoint" />
            <Array as="points">
              <mxPoint x="640" y="213" />
              <mxPoint x="639.5" y="190" />
            </Array>
          </mxGeometry>
        </mxCell>
        <mxCell id="Bjp5nVyqqUVbzpo7jV4G-51" value="" style="endArrow=classic;html=1;strokeWidth=4;exitX=0.5;exitY=0;exitDx=0;exitDy=0;curved=1;" edge="1" parent="1" source="Bjp5nVyqqUVbzpo7jV4G-47">
          <mxGeometry width="50" height="50" relative="1" as="geometry">
            <mxPoint x="670" y="450" as="sourcePoint" />
            <mxPoint x="680" y="290" as="targetPoint" />
            <Array as="points">
              <mxPoint x="689.5" y="430" />
            </Array>
          </mxGeometry>
        </mxCell>
        <mxCell id="Bjp5nVyqqUVbzpo7jV4G-52" value="" style="endArrow=classic;html=1;strokeWidth=4;entryX=0.5;entryY=1;entryDx=0;entryDy=0;curved=1;" edge="1" parent="1" target="Bjp5nVyqqUVbzpo7jV4G-48">
          <mxGeometry width="50" height="50" relative="1" as="geometry">
            <mxPoint x="600.5" y="330" as="sourcePoint" />
            <mxPoint x="600" y="270" as="targetPoint" />
            <Array as="points">
              <mxPoint x="600.5" y="313" />
              <mxPoint x="600" y="210" />
              <mxPoint x="640" y="200" />
            </Array>
          </mxGeometry>
        </mxCell>
        <mxCell id="Bjp5nVyqqUVbzpo7jV4G-53" value="" style="endArrow=classic;html=1;rounded=0;strokeWidth=4;" edge="1" parent="1">
          <mxGeometry width="50" height="50" relative="1" as="geometry">
            <mxPoint x="50" y="258.5" as="sourcePoint" />
            <mxPoint x="130" y="258.5" as="targetPoint" />
            <Array as="points">
              <mxPoint x="79.5" y="258.5" />
            </Array>
          </mxGeometry>
        </mxCell>
        <mxCell id="Bjp5nVyqqUVbzpo7jV4G-54" value="" style="endArrow=classic;html=1;rounded=0;strokeWidth=4;entryX=0;entryY=0.5;entryDx=0;entryDy=0;" edge="1" parent="1" target="Bjp5nVyqqUVbzpo7jV4G-34">
          <mxGeometry width="50" height="50" relative="1" as="geometry">
            <mxPoint x="250" y="258.5" as="sourcePoint" />
            <mxPoint x="330" y="258.5" as="targetPoint" />
            <Array as="points">
              <mxPoint x="279.5" y="258.5" />
            </Array>
          </mxGeometry>
        </mxCell>
        <mxCell id="Bjp5nVyqqUVbzpo7jV4G-55" value="" style="endArrow=classic;html=1;rounded=0;strokeWidth=4;" edge="1" parent="1">
          <mxGeometry width="50" height="50" relative="1" as="geometry">
            <mxPoint x="474" y="258.5" as="sourcePoint" />
            <mxPoint x="580" y="259" as="targetPoint" />
            <Array as="points">
              <mxPoint x="503.5" y="258.5" />
            </Array>
          </mxGeometry>
        </mxCell>
        <mxCell id="Bjp5nVyqqUVbzpo7jV4G-56" value="" style="endArrow=classic;html=1;rounded=0;strokeWidth=4;" edge="1" parent="1">
          <mxGeometry width="50" height="50" relative="1" as="geometry">
            <mxPoint x="700" y="258.5" as="sourcePoint" />
            <mxPoint x="780" y="258.5" as="targetPoint" />
            <Array as="points">
              <mxPoint x="729.5" y="258.5" />
            </Array>
          </mxGeometry>
        </mxCell>
        <mxCell id="Bjp5nVyqqUVbzpo7jV4G-57" value="" style="endArrow=classic;html=1;rounded=0;strokeWidth=4;" edge="1" parent="1">
          <mxGeometry width="50" height="50" relative="1" as="geometry">
            <mxPoint x="100.5" y="359.5" as="sourcePoint" />
            <mxPoint x="50" y="360" as="targetPoint" />
            <Array as="points">
              <mxPoint x="130" y="359.5" />
            </Array>
          </mxGeometry>
        </mxCell>
        <mxCell id="Bjp5nVyqqUVbzpo7jV4G-58" value="" style="endArrow=classic;html=1;rounded=0;strokeWidth=4;" edge="1" parent="1">
          <mxGeometry width="50" height="50" relative="1" as="geometry">
            <mxPoint x="750.5" y="359.5" as="sourcePoint" />
            <mxPoint x="700" y="360" as="targetPoint" />
            <Array as="points">
              <mxPoint x="780" y="359.5" />
            </Array>
          </mxGeometry>
        </mxCell>
        <mxCell id="Bjp5nVyqqUVbzpo7jV4G-60" value="" style="endArrow=classic;html=1;rounded=0;strokeWidth=4;exitX=0;exitY=0.5;exitDx=0;exitDy=0;" edge="1" parent="1" source="Bjp5nVyqqUVbzpo7jV4G-35">
          <mxGeometry width="50" height="50" relative="1" as="geometry">
            <mxPoint x="380" y="570" as="sourcePoint" />
            <mxPoint x="250" y="360" as="targetPoint" />
            <Array as="points" />
          </mxGeometry>
        </mxCell>
        <mxCell id="Bjp5nVyqqUVbzpo7jV4G-61" value="" style="endArrow=classic;html=1;rounded=0;strokeWidth=4;exitX=0;exitY=0.5;exitDx=0;exitDy=0;" edge="1" parent="1">
          <mxGeometry width="50" height="50" relative="1" as="geometry">
            <mxPoint x="580" y="359.5" as="sourcePoint" />
            <mxPoint x="476" y="359.5" as="targetPoint" />
            <Array as="points" />
          </mxGeometry>
        </mxCell>
        <mxCell id="Bjp5nVyqqUVbzpo7jV4G-63" value="&lt;font style=&quot;font-size: 18px;&quot;&gt;f&lt;sub style=&quot;font-size: 18px;&quot;&gt;t-1&lt;/sub&gt;&lt;/font&gt;" style="text;html=1;align=center;verticalAlign=middle;resizable=0;points=[];autosize=1;strokeColor=none;fillColor=none;fontFamily=Times New Roman;fontSize=18;fontStyle=1" vertex="1" parent="1">
          <mxGeometry x="185" y="190" width="50" height="40" as="geometry" />
        </mxCell>
        <mxCell id="Bjp5nVyqqUVbzpo7jV4G-64" value="&lt;font style=&quot;font-size: 18px;&quot;&gt;f&lt;sub style=&quot;font-size: 18px;&quot;&gt;t&lt;br&gt;&lt;/sub&gt;&lt;/font&gt;" style="text;html=1;align=center;verticalAlign=middle;resizable=0;points=[];autosize=1;strokeColor=none;fillColor=none;fontFamily=Times New Roman;fontSize=18;fontStyle=1" vertex="1" parent="1">
          <mxGeometry x="409" y="190" width="40" height="40" as="geometry" />
        </mxCell>
        <mxCell id="Bjp5nVyqqUVbzpo7jV4G-65" value="&lt;font style=&quot;font-size: 18px;&quot;&gt;f&lt;sub style=&quot;font-size: 18px;&quot;&gt;t+1&lt;/sub&gt;&lt;/font&gt;" style="text;html=1;align=center;verticalAlign=middle;resizable=0;points=[];autosize=1;strokeColor=none;fillColor=none;fontFamily=Times New Roman;fontSize=18;fontStyle=1" vertex="1" parent="1">
          <mxGeometry x="637" y="190" width="50" height="40" as="geometry" />
        </mxCell>
        <mxCell id="Bjp5nVyqqUVbzpo7jV4G-68" value="&lt;b style=&quot;font-size: 18px;&quot;&gt;&lt;font style=&quot;font-size: 18px;&quot; face=&quot;Times New Roman&quot;&gt;b&lt;sub&gt;t-1&lt;/sub&gt;&lt;/font&gt;&lt;/b&gt;" style="text;html=1;align=center;verticalAlign=middle;resizable=0;points=[];autosize=1;strokeColor=none;fillColor=none;" vertex="1" parent="1">
          <mxGeometry x="146" y="290" width="50" height="40" as="geometry" />
        </mxCell>
        <mxCell id="Bjp5nVyqqUVbzpo7jV4G-69" value="&lt;b style=&quot;font-size: 18px;&quot;&gt;&lt;font style=&quot;font-size: 18px;&quot; face=&quot;Times New Roman&quot;&gt;b&lt;sub&gt;t&lt;br&gt;&lt;/sub&gt;&lt;/font&gt;&lt;/b&gt;" style="text;html=1;align=center;verticalAlign=middle;resizable=0;points=[];autosize=1;strokeColor=none;fillColor=none;" vertex="1" parent="1">
          <mxGeometry x="368" y="290" width="40" height="40" as="geometry" />
        </mxCell>
        <mxCell id="Bjp5nVyqqUVbzpo7jV4G-70" value="&lt;b style=&quot;font-size: 18px;&quot;&gt;&lt;font style=&quot;font-size: 18px;&quot; face=&quot;Times New Roman&quot;&gt;b&lt;sub&gt;t+1&lt;/sub&gt;&lt;/font&gt;&lt;/b&gt;" style="text;html=1;align=center;verticalAlign=middle;resizable=0;points=[];autosize=1;strokeColor=none;fillColor=none;" vertex="1" parent="1">
          <mxGeometry x="597" y="290" width="50" height="40" as="geometry" />
        </mxCell>
      </root>
    </mxGraphModel>
  </diagram>
</mxfile>
